<svg xmlns="http://www.w3.org/2000/svg" viewBox="0 0 357.2 357.2"><path d="M123 97v-1L65 39h32c7 0 14-7 14-14V14c0-7-7-14-14-14H15C11 0 8 2 5 5c-3 2-4 6-4 10v83c0 8 6 14 14 14h10c8 0 14-6 14-14V67l50 49v1l7 6c5 5 14 5 19 0l7-8c6-5 6-13 1-18zM357 261c0-8-6-14-14-14h-10c-8 0-14 6-14 14v31l-57-57-1-1c-6-4-14-4-19 1l-7 8c-6 5-6 14 0 19l6 7 50 49h-31c-8 0-14 7-14 14v11c0 7 6 14 14 14h83c4 0 7-2 10-4v-1c3-2 4-6 4-9v-82zM122 243l-7-8c-5-5-14-5-19 0h-1l-57 57v-31c0-4-1-7-4-10-2-2-6-4-10-4H14a14 14 0 00-14 14v82c0 3 2 7 4 10 3 2 6 4 10 4h83c8 0 14-6 14-14v-11c0-3-1-7-4-9-2-3-6-4-9-4H66l50-50 5-5 1-1c6-6 6-15 0-20zM356 15c0-4-1-8-4-10-2-3-6-5-10-5h-81a14 14 0 00-14 14v11c0 4 1 7 4 10 2 2 6 4 10 4h31l-58 57v1c-5 5-4 13 1 19l7 7c6 5 15 5 20 0l6-7 50-49v31c0 4 2 7 4 10 3 2 6 4 10 4h10c8 0 14-6 14-14V15zM206 152a39 39 0 10-55 54 39 39 0 0055-54z"/></svg>